<?xml version="1.0" encoding="UTF-8" standalone="no"?>
<svg
   xmlns:dc="http://purl.org/dc/elements/1.1/"
   xmlns:cc="http://creativecommons.org/ns#"
   xmlns:rdf="http://www.w3.org/1999/02/22-rdf-syntax-ns#"
   xmlns:svg="http://www.w3.org/2000/svg"
   xmlns="http://www.w3.org/2000/svg"
   xmlns:sodipodi="http://sodipodi.sourceforge.net/DTD/sodipodi-0.dtd"
   xmlns:inkscape="http://www.inkscape.org/namespaces/inkscape"
   version="1.1"
   id="Layer_1"
   x="0px"
   y="0px"
   viewBox="5 11 635 635"
   xml:space="preserve"
   sodipodi:docname="tree.svg"
   inkscape:version="1.0 (4035a4fb49, 2020-05-01)"
   width="635"
   height="635"><metadata
   id="metadata1343"><rdf:RDF><cc:Work
       rdf:about=""><dc:format>image/svg+xml</dc:format><dc:type
         rdf:resource="http://purl.org/dc/dcmitype/StillImage" /><dc:title></dc:title></cc:Work></rdf:RDF></metadata><defs
   id="defs1341">
	
	
</defs><sodipodi:namedview
   viewbox-y="11"
   viewbox-x="10"
   inkscape:showpageshadow="false"
   borderlayer="false"
   showborder="true"
   fit-margin-bottom="100"
   fit-margin-top="100"
   fit-margin-right="100"
   fit-margin-left="100"
   inkscape:document-rotation="0"
   pagecolor="#ffffff"
   bordercolor="#666666"
   borderopacity="1"
   objecttolerance="10"
   gridtolerance="10"
   guidetolerance="10"
   inkscape:pageopacity="0"
   inkscape:pageshadow="2"
   inkscape:window-width="1920"
   inkscape:window-height="1017"
   id="namedview1339"
   showgrid="true"
   inkscape:zoom="1.2030769"
   inkscape:cx="369.14692"
   inkscape:cy="306.4349"
   inkscape:window-x="-8"
   inkscape:window-y="-8"
   inkscape:window-maximized="1"
   inkscape:current-layer="Layer_1"><inkscape:grid
     originy="-85.559823"
     originx="-101.72102"
     type="xygrid"
     id="grid1988" /></sodipodi:namedview>







<g
   transform="translate(-176.17402,-173.35982)"
   id="g1308">
</g>
<g
   transform="translate(-176.17402,-173.35982)"
   id="g1310">
</g>
<g
   transform="translate(-176.17402,-173.35982)"
   id="g1312">
</g>
<g
   transform="translate(-176.17402,-173.35982)"
   id="g1314">
</g>
<g
   transform="translate(-176.17402,-173.35982)"
   id="g1316">
</g>
<g
   transform="translate(-176.17402,-173.35982)"
   id="g1318">
</g>
<g
   transform="translate(-176.17402,-173.35982)"
   id="g1320">
</g>
<g
   transform="translate(-176.17402,-173.35982)"
   id="g1322">
</g>
<g
   transform="translate(-176.17402,-173.35982)"
   id="g1324">
</g>
<g
   transform="translate(-176.17402,-173.35982)"
   id="g1326">
</g>
<g
   transform="translate(-176.17402,-173.35982)"
   id="g1328">
</g>
<g
   transform="translate(-176.17402,-173.35982)"
   id="g1330">
</g>
<g
   transform="translate(-176.17402,-173.35982)"
   id="g1332">
</g>
<g
   transform="translate(-176.17402,-173.35982)"
   id="g1334">
</g>
<g
   transform="translate(-176.17402,-173.35982)"
   id="g1336">
</g>
<path
   style="fill:#00a700;fill-opacity:1"
   d="m 547.01298,313.71718 c 0,-34.779 -21.15,-64.618 -51.289,-77.357 5.322,-10.289 8.347,-21.959 8.347,-34.342 0,-41.349 -33.52,-74.87 -74.87,-74.87 -11.781,0 -22.921,2.729 -32.837,7.577 -8.811,-31.544 -37.741,-54.693 -72.097,-54.693 -34.356,0 -63.286,23.149 -72.097,54.694 -9.915,-4.848 -21.056,-7.577 -32.837,-7.577 -41.349,0 -74.87,33.52 -74.87,74.87 0,12.383 3.025,24.053 8.347,34.342 -30.139,12.739 -51.289,42.578 -51.289,77.357 0,45.073 35.535,81.799 80.112,83.81 6.215,22.511 30.215,39.292 58.896,39.292 16.256,0 31.001,-5.399 41.869,-14.166 10.867,8.767 25.613,14.166 41.869,14.166 16.256,0 31.001,-5.399 41.869,-14.166 10.867,8.767 25.613,14.166 41.869,14.166 28.682,0 52.682,-16.782 58.896,-39.292 44.577,-2.012 80.112,-38.738 80.112,-83.811 z"
   id="path1290" /><path
   id="path1292"
   d="m 319.77698,80.18018 c -0.922,0.055 -1.84,0.122 -2.752,0.211 -0.279,0.027 -0.557,0.058 -0.836,0.088 -0.98,0.106 -1.955,0.228 -2.924,0.372 -0.181,0.027 -0.363,0.053 -0.544,0.081 -1.153,0.18 -2.298,0.38 -3.433,0.611 -0.002,0 -0.004,10e-4 -0.006,10e-4 19.654,3.997 38.056,17.686 49.714,34.941 8.256,12.219 22.362,19.262 37.074,18.262 0.098,-0.007 0.196,-0.013 0.294,-0.02 -8.81,-31.546 -37.74,-54.695 -72.096,-54.695 -1.204,0 -2.4,0.035 -3.591,0.092 -0.301,0.014 -0.6,0.038 -0.9,0.056 z"
   style="fill:#097c09" /><path
   id="path1294"
   d="m 495.72298,236.36018 c 5.323,-10.289 8.347,-21.959 8.347,-34.342 0,-41.349 -33.52,-74.87 -74.87,-74.87 -5.131,0 -10.141,0.519 -14.981,1.504 34.165,6.944 59.879,37.151 59.879,73.366 0,12.383 -3.025,24.053 -8.347,34.342 30.139,12.739 51.289,42.578 51.289,77.357 0,45.073 -35.535,81.799 -80.111,83.809 -5.094,18.45 -22.139,33.044 -43.913,37.712 4.793,1.029 9.813,1.581 14.988,1.581 28.681,0 52.682,-16.782 58.896,-39.292 44.577,-2.01 80.111,-38.736 80.111,-83.809 0.002,-34.78 -21.147,-64.618 -51.288,-77.358 z"
   style="fill:#008200;fill-opacity:1" /><path
   style="fill:#009000"
   d="m 270.65798,410.25218 c -6.752,11.452 -34.735,24.258 -45.112,24.986 1.142,0.245 2.299,0.459 3.465,0.649 0.094,0.015 0.187,0.032 0.281,0.047 1.183,0.188 2.377,0.349 3.583,0.478 0.031,0.003 0.062,0.005 0.093,0.009 1.085,0.115 2.182,0.197 3.285,0.263 0.269,0.016 0.537,0.031 0.807,0.044 1.149,0.055 2.304,0.092 3.47,0.092 v 0 c 14.826,0 28.385,-4.501 38.902,-11.942 l 1.844,-1.341 -9.391,-15.408 z"
   id="path1298" /><path
   style="fill:#bf6101"
   d="m 361.70398,429.37018 32.077,-50.616 c 2.537,-4.004 1.77,-9.26 -1.807,-12.371 v 0 c -3.819,-3.322 -9.562,-3.105 -13.119,0.496 l -23.623,23.916 c -3.133,3.172 -8.501,0.534 -7.904,-3.884 l 6.947,-51.468 c 0.742,-5.499 -3.323,-10.479 -8.859,-10.853 l -6.508,-0.44 c -4.891,-0.33 -9.244,3.08 -10.093,7.907 l -12.399,70.449 c -0.69,3.918 -5.665,5.211 -8.175,2.124 l -38.834,-47.759 c -2.687,-3.305 -7.232,-4.442 -11.158,-2.791 l -6.799,2.858 c -5.383,2.263 -7.513,8.77 -4.509,13.777 l 39.907,66.518 c 5.779,9.633 8.162,20.934 6.717,32.074 -5.172,39.888 -11.596,77.507 -37.887,108.151 h 137.185 v 0 c -28.144,-32.805 -35.086,-73.601 -38.811,-116.618 -0.959,-11.046 1.717,-22.105 7.652,-31.47 z"
   id="path1300" /><path
   style="fill:#9a4d01"
   d="m 393.77898,378.75418 c 2.537,-4.004 1.77,-9.26 -1.807,-12.371 v 0 c -3.819,-3.322 -9.562,-3.105 -13.119,0.496 l -10.55,10.68 v 0 l -13.073,13.236 c -3.133,3.172 -8.5,0.534 -7.904,-3.884 l 6.947,-51.468 c 0.724,-5.36 -3.125,-10.214 -8.447,-10.803 l -19.533,121.408 c -0.328,1.568 -0.585,3.151 -0.763,4.745 v 0 0 c -0.372,3.318 -0.422,6.683 -0.131,10.046 3.725,43.018 10.667,83.814 38.811,116.618 v 0 h 28.649 v 0 c -28.144,-32.805 -35.086,-73.601 -38.811,-116.618 -0.956,-11.046 1.719,-22.105 7.654,-31.47 z"
   id="path1302" /><path
   style="fill:#00b400;fill-opacity:1"
   d="m 310.01898,138.81018 c -21.005,0 -39.087,12.467 -47.284,30.399 -8.468,-5.984 -18.796,-9.511 -29.953,-9.511 -28.706,0 -51.977,23.271 -51.977,51.977 0,9.472 2.546,18.343 6.972,25.991 -24.926,3.832 -44.014,25.371 -44.014,51.37 0,28.706 23.271,51.977 51.977,51.977 28.706,0 166.256,-121.52 166.256,-150.226 0,-28.706 -23.272,-51.977 -51.977,-51.977 z"
   id="path1304" /><path
   style="fill:#121419"
   d="m 505.35998,232.85418 c 3.984,-9.778 5.998,-20.118 5.998,-30.835 0,-2.173 -0.086,-4.369 -0.256,-6.524 -0.316,-4.012 -3.827,-7.005 -7.836,-6.692 -4.011,0.316 -7.008,3.824 -6.692,7.836 0.139,1.777 0.211,3.587 0.211,5.38 0,10.904 -2.534,21.332 -7.532,30.994 -0.934,1.803 -1.071,3.914 -0.381,5.824 0.69,1.91 2.146,3.445 4.016,4.235 28.454,12.027 46.84,39.757 46.84,70.645 0,41.064 -32.133,74.68 -73.154,76.53 -3.153,0.142 -5.856,2.298 -6.695,5.34 -5.43,19.669 -27.246,33.945 -51.872,33.945 -11.734,0 -22.926,-3.123 -32.145,-8.889 l 24.074,-37.99 c 1.687,-2.662 2.553,-5.613 2.643,-8.553 0.149,-4.9 -1.859,-9.768 -5.821,-13.215 -6.703,-5.832 -16.843,-5.447 -23.086,0.873 l -18.065,18.289 5.89,-43.63 c 0.622,-4.613 -0.709,-9.326 -3.652,-12.931 -2.575,-3.155 -6.228,-5.269 -10.212,-5.959 -0.569,-0.098 -1.145,-0.168 -1.725,-0.207 l -6.508,-0.44 c -3.238,-0.22 -6.335,0.485 -9.019,1.9 -4.474,2.358 -7.805,6.692 -8.742,12.014 l -5.698,32.375 -5.698,32.374 -35.182,-43.267 c -1.167,-1.435 -2.543,-2.638 -4.056,-3.591 -0.009,-0.006 -0.018,-0.013 -0.027,-0.019 -0.163,-0.102 -0.334,-0.19 -0.5,-0.287 -2.165,-1.257 -4.579,-2.032 -7.062,-2.252 -0.079,-0.007 -0.16,-0.006 -0.239,-0.012 -0.366,-0.027 -0.732,-0.05 -1.1,-0.054 -2.242,-0.022 -4.506,0.401 -6.65,1.303 l -6.799,2.858 c -4.515,1.897 -7.978,5.655 -9.502,10.309 -1.524,4.655 -0.953,9.733 1.567,13.934 l 28.798,48 c -8.59,4.588 -18.647,7.068 -28.958,7.068 -24.627,0 -46.442,-14.276 -51.872,-33.944 -0.84,-3.043 -3.543,-5.198 -6.695,-5.34 -41.021,-1.85 -73.154,-35.466 -73.154,-76.531 0,-30.889 18.386,-58.619 46.84,-70.645 1.87,-0.79 3.326,-2.325 4.016,-4.235 0.69,-1.91 0.552,-4.021 -0.381,-5.824 -4.998,-9.662 -7.532,-20.09 -7.532,-30.994 0,-37.265 30.318,-67.583 67.583,-67.583 10.387,0 20.359,2.3 29.637,6.836 1.943,0.951 4.209,0.988 6.184,0.102 1.973,-0.886 3.452,-2.603 4.034,-4.687 8.118,-29.067 34.88,-49.368 65.079,-49.368 30.199,0 56.961,20.301 65.079,49.368 0.583,2.084 2.061,3.802 4.034,4.687 1.974,0.887 4.241,0.85 6.184,-0.102 9.278,-4.536 19.25,-6.836 29.637,-6.836 24.911,0 47.73,13.639 59.551,35.596 1.907,3.543 6.327,4.869 9.87,2.961 3.544,-1.907 4.869,-6.327 2.961,-9.87 -14.367,-26.684 -42.102,-43.26 -72.382,-43.26 -9.839,0 -19.373,1.699 -28.444,5.061 -12.203,-31.097 -42.564,-52.18 -76.495,-52.18 -33.931,0 -64.292,21.083 -76.49,52.179 -9.071,-3.362 -18.605,-5.061 -28.444,-5.061 -45.302,0 -82.157,36.855 -82.157,82.156 0,10.717 2.014,21.058 5.998,30.835 -29.962,15.653 -48.94,46.627 -48.94,80.863 0,47.179 35.631,86.097 82.019,90.723 9.12,23.595 34.75,39.665 64.275,39.665 12.944,0 25.62,-3.214 36.457,-9.142 l 3.611,6.018 c 4.926,8.212 6.965,17.938 5.74,27.389 -1.06,8.171 -2.365,17.793 -4.02,27.211 -0.696,3.964 1.953,7.741 5.916,8.437 3.969,0.697 7.741,-1.953 8.437,-5.916 1.705,-9.703 3.039,-19.527 4.119,-27.86 1.645,-12.691 -1.087,-25.746 -7.695,-36.759 l -39.907,-66.517 c -0.472,-0.786 -0.337,-1.53 -0.214,-1.904 0.122,-0.374 0.454,-1.053 1.298,-1.408 l 6.8,-2.858 c 0.936,-0.394 2.04,-0.118 2.681,0.671 l 38.835,47.76 c 0.103,0.126 0.212,0.244 0.319,0.365 1.443,1.64 3.238,2.819 5.211,3.466 2.096,0.688 4.386,0.778 6.651,0.205 0.025,-0.006 0.05,-0.01 0.076,-0.017 0,0 0,0 10e-4,0 h 0.001 c 2.201,-0.572 4.115,-1.714 5.604,-3.259 0.058,-0.061 0.121,-0.118 0.178,-0.179 0.052,-0.057 0.1,-0.118 0.151,-0.176 1.428,-1.611 2.418,-3.615 2.813,-5.862 l 12.399,-70.449 c 0.205,-1.164 1.274,-1.977 2.426,-1.901 l 6.509,0.44 c 0.867,0.059 1.394,0.553 1.63,0.843 0.236,0.289 0.615,0.903 0.498,1.766 l -6.947,51.469 c -0.086,0.637 -0.12,1.271 -0.104,1.898 0.108,4.389 2.632,8.422 6.667,10.404 0.288,0.142 0.58,0.271 0.875,0.387 1.473,0.584 3.019,0.858 4.55,0.837 3.062,-0.042 6.067,-1.263 8.323,-3.548 l 23.622,-23.916 c 0.408,-0.413 0.939,-0.636 1.481,-0.673 0.024,-0.002 0.047,-0.008 0.071,-0.009 0.012,0 0.024,0.002 0.036,0.002 0.414,-0.009 0.83,0.089 1.201,0.302 0.127,0.073 0.249,0.159 0.364,0.259 0.865,0.753 1.047,2.004 0.434,2.973 l -32.077,50.616 c -6.737,10.632 -9.848,23.417 -8.758,35.999 3.052,35.249 8.341,74.994 31.324,108.703 h -107.744 c 8.224,-12.196 14.614,-26.071 19.392,-42.043 1.153,-3.855 -1.037,-7.916 -4.893,-9.069 -3.857,-1.153 -7.917,1.037 -9.069,4.893 -5.828,19.482 -14.22,35.433 -25.657,48.761 -1.853,2.16 -2.279,5.202 -1.09,7.788 1.189,2.586 3.774,4.243 6.62,4.243 h 137.185 c 2.846,0 5.432,-1.657 6.62,-4.243 1.189,-2.586 0.763,-5.628 -1.09,-7.787 -28.059,-32.706 -33.853,-75.221 -37.082,-112.503 -0.815,-9.421 1.51,-18.99 6.549,-26.941 l 0.204,-0.323 c 11.543,7.234 25.447,11.158 39.944,11.158 29.525,0 55.155,-16.07 64.275,-39.666 46.388,-4.626 82.019,-43.544 82.019,-90.722 0.002,-34.237 -18.977,-65.211 -48.938,-80.864 z"
   id="path1306" /><g
   style="fill:none;fill-opacity:1;stroke:#060906;stroke-width:20.675;stroke-miterlimit:4;stroke-dasharray:none;stroke-opacity:1;paint-order:stroke fill markers"
   id="g2023"
   transform="matrix(0.67714538,0,0,0.67714538,-66.53914,-63.35416)"><path
     transform="rotate(13)"
     id="path5311"
     d="M 422.08398,23.251953 C 343.30345,22.572649 268.28584,64.635355 228.70117,136.00391 c -48.71958,87.83821 -31.36227,197.70643 42.0625,266.24804 l 14.10742,-15.11328 C 218.30556,325.00012 202.61298,225.6657 246.78125,146.0332 290.94952,66.40071 383.52782,27.117128 471.48633,50.685547 l 5.34961,-19.970703 c -18.19166,-4.874442 -36.57183,-7.306128 -54.75196,-7.462891 z"
     style="color:#000000;font-style:normal;font-variant:normal;font-weight:normal;font-stretch:normal;font-size:medium;line-height:normal;font-family:sans-serif;font-variant-ligatures:normal;font-variant-position:normal;font-variant-caps:normal;font-variant-numeric:normal;font-variant-alternates:normal;font-variant-east-asian:normal;font-feature-settings:normal;font-variation-settings:normal;text-indent:0;text-align:start;text-decoration:none;text-decoration-line:none;text-decoration-style:solid;text-decoration-color:#000000;letter-spacing:normal;word-spacing:normal;text-transform:none;writing-mode:lr-tb;direction:ltr;text-orientation:mixed;dominant-baseline:auto;baseline-shift:baseline;text-anchor:start;white-space:normal;shape-padding:0;shape-margin:0;inline-size:0;clip-rule:nonzero;display:inline;overflow:visible;visibility:visible;opacity:1;isolation:auto;mix-blend-mode:normal;color-interpolation:sRGB;color-interpolation-filters:linearRGB;solid-color:#000000;solid-opacity:1;vector-effect:none;fill:#060906;fill-opacity:1;fill-rule:nonzero;stroke:none;stroke-width:20.675;stroke-linecap:butt;stroke-linejoin:miter;stroke-miterlimit:4;stroke-dasharray:none;stroke-dashoffset:0;stroke-opacity:1;paint-order:stroke fill markers;color-rendering:auto;image-rendering:auto;shape-rendering:auto;text-rendering:auto;enable-background:accumulate;stop-color:#000000;stop-opacity:1" /></g><path
   d="M 134.88334,194.53896 A 104.83379,104.83379 0 0 1 114.74356,67.057387 104.83379,104.83379 0 0 1 233.55294,16.644155"
   sodipodi:arc-type="arc"
   sodipodi:open="true"
   sodipodi:end="4.9741884"
   sodipodi:start="2.3218115"
   sodipodi:ry="104.83379"
   sodipodi:rx="104.83379"
   sodipodi:cy="117.90582"
   sodipodi:cx="206.41995"
   sodipodi:type="arc"
   id="path1375-3-8"
   style="fill:none;fill-opacity:1;stroke:#060906;stroke-width:14;stroke-miterlimit:4;stroke-dasharray:none;stroke-opacity:1;paint-order:stroke fill markers"
   transform="rotate(13)" /><path
   d="M 161.66738,168.80797 A 69.506874,69.506874 0 0 1 148.31431,84.285171 69.506874,69.506874 0 0 1 227.08727,50.860204"
   style="fill:none;fill-opacity:1;stroke:#060906;stroke-width:14;stroke-miterlimit:4;stroke-dasharray:none;stroke-opacity:1;paint-order:stroke fill markers"
   id="path1375-3-4-6"
   sodipodi:type="arc"
   sodipodi:cx="209.09756"
   sodipodi:cy="117.99869"
   sodipodi:rx="69.506874"
   sodipodi:ry="69.506874"
   sodipodi:start="2.3218115"
   sodipodi:end="4.9741884"
   sodipodi:open="true"
   sodipodi:arc-type="arc"
   transform="rotate(13)" /></svg>
