<?xml version="1.0" encoding="UTF-8" standalone="no"?>
<svg
   xmlns:dc="http://purl.org/dc/elements/1.1/"
   xmlns:cc="http://creativecommons.org/ns#"
   xmlns:rdf="http://www.w3.org/1999/02/22-rdf-syntax-ns#"
   xmlns:svg="http://www.w3.org/2000/svg"
   xmlns="http://www.w3.org/2000/svg"
   xmlns:sodipodi="http://sodipodi.sourceforge.net/DTD/sodipodi-0.dtd"
   xmlns:inkscape="http://www.inkscape.org/namespaces/inkscape"
   inkscape:export-ydpi="96"
   inkscape:export-xdpi="96"
   inkscape:export-filename="C:\Users\Jon\Desktop\tree.png"
   height="1536"
   width="1536"
   inkscape:version="1.0 (4035a4fb49, 2020-05-01)"
   sodipodi:docname="tree for iOS icon.svg"
   xml:space="preserve"
   viewBox="5 11 1536 1536"
   y="0px"
   x="0px"
   id="Layer_1"
   version="1.1"><metadata
   id="metadata1343"><rdf:RDF><cc:Work
       rdf:about=""><dc:format>image/svg+xml</dc:format><dc:type
         rdf:resource="http://purl.org/dc/dcmitype/StillImage" /><dc:title></dc:title></cc:Work></rdf:RDF></metadata><defs
   id="defs1341">
	
	
</defs><sodipodi:namedview
   inkscape:current-layer="Layer_1"
   inkscape:window-maximized="1"
   inkscape:window-y="-8"
   inkscape:window-x="-8"
   inkscape:cy="594.30391"
   inkscape:cx="-220.31974"
   inkscape:zoom="0.30076923"
   showgrid="true"
   id="namedview1339"
   inkscape:window-height="1017"
   inkscape:window-width="1920"
   inkscape:pageshadow="2"
   inkscape:pageopacity="0"
   guidetolerance="10"
   gridtolerance="10"
   objecttolerance="10"
   borderopacity="1"
   bordercolor="#666666"
   pagecolor="#72c8f2"
   inkscape:document-rotation="0"
   fit-margin-left="100"
   fit-margin-right="100"
   fit-margin-top="100"
   fit-margin-bottom="100"
   showborder="true"
   borderlayer="false"
   inkscape:showpageshadow="false"
   viewbox-x="10"
   viewbox-y="11"><inkscape:grid
     id="grid1988"
     type="xygrid"
     originx="-101.72102"
     originy="-85.559823" /></sodipodi:namedview>







<g
   id="g1308"
   transform="translate(-176.17402,-173.35982)">
</g>
<g
   id="g1310"
   transform="translate(-176.17402,-173.35982)">
</g>
<g
   id="g1312"
   transform="translate(-176.17402,-173.35982)">
</g>
<g
   id="g1314"
   transform="translate(-176.17402,-173.35982)">
</g>
<g
   id="g1316"
   transform="translate(-176.17402,-173.35982)">
</g>
<g
   id="g1318"
   transform="translate(-176.17402,-173.35982)">
</g>
<g
   id="g1320"
   transform="translate(-176.17402,-173.35982)">
</g>
<g
   id="g1322"
   transform="translate(-176.17402,-173.35982)">
</g>
<g
   id="g1324"
   transform="translate(-176.17402,-173.35982)">
</g>
<g
   id="g1326"
   transform="translate(-176.17402,-173.35982)">
</g>
<g
   id="g1328"
   transform="translate(-176.17402,-173.35982)">
</g>
<g
   id="g1330"
   transform="translate(-176.17402,-173.35982)">
</g>
<g
   id="g1332"
   transform="translate(-176.17402,-173.35982)">
</g>
<g
   id="g1334"
   transform="translate(-176.17402,-173.35982)">
</g>
<g
   id="g1336"
   transform="translate(-176.17402,-173.35982)">
</g>
<path
   id="path1290"
   d="m 1237.5581,765.47887 c 0,-71.83602 -43.6853,-133.46848 -105.9374,-159.78088 10.9926,-21.25193 17.2407,-45.35632 17.2407,-70.9334 0,-85.40636 -69.2355,-154.64398 -154.644,-154.64398 -24.33363,0 -47.3433,5.63674 -67.82481,15.65029 -18.19912,-65.15414 -77.95404,-112.96839 -148.91635,-112.96839 -70.96232,0 -130.71724,47.81425 -148.91636,112.97046 -20.47943,-10.01355 -43.49117,-15.6503 -67.82482,-15.6503 -85.40636,0 -154.64399,69.23556 -154.64399,154.64398 0,25.57709 6.24814,49.68148 17.24073,70.9334 -62.2521,26.31241 -105.93743,87.94486 -105.93743,159.78089 0,93.09828 73.39754,168.95585 165.47134,173.10957 12.83708,46.49639 62.40908,81.15769 121.64969,81.15769 33.57677,0 64.03256,-11.1517 86.48041,-29.2599 22.4458,18.1082 52.90366,29.2599 86.48043,29.2599 33.57676,0 64.03256,-11.1517 86.48041,-29.2599 22.44579,18.1082 52.90366,29.2599 86.48044,29.2599 59.24261,0 108.81471,-34.6633 121.64961,-81.15768 92.0739,-4.1558 165.4714,-80.01336 165.4714,-173.11165 z"
   style="fill:#00a700;fill-opacity:1;stroke-width:0.999999" /><path
   style="fill:#097c09;stroke-width:0.999999"
   d="m 768.20214,283.1082 c -1.90439,0.1136 -3.80052,0.25199 -5.68425,0.43582 -0.57628,0.0557 -1.15049,0.1198 -1.72676,0.18176 -2.02419,0.21895 -4.03806,0.47094 -6.03952,0.76837 -0.37387,0.0557 -0.74979,0.10948 -1.12364,0.16731 -2.38152,0.37179 -4.74652,0.78489 -7.09086,1.26201 -0.005,0 -0.008,0.002 -0.0124,0.002 40.59534,8.25581 78.60467,36.53044 102.68427,72.17065 17.05277,25.23833 46.18871,39.78566 76.57635,37.72016 0.20242,-0.0145 0.40483,-0.0268 0.60725,-0.0413 -18.19705,-65.15827 -77.95197,-112.97253 -148.91428,-112.97253 -2.48687,0 -4.9572,0.0722 -7.41721,0.19002 -0.62172,0.0289 -1.2393,0.0785 -1.85895,0.11567 z"
   id="path1292" /><path
   style="fill:#008200;fill-opacity:1;stroke-width:0.999999"
   d="m 1131.6186,605.69799 c 10.9947,-21.25193 17.2408,-45.35632 17.2408,-70.9334 0,-85.40636 -69.2356,-154.64398 -154.64402,-154.64398 -10.59812,0 -20.94626,1.07199 -30.94327,3.10651 70.56779,14.34283 123.68009,76.73538 123.68009,151.53747 0,25.57708 -6.2482,49.68147 -17.2407,70.9334 62.2521,26.3124 105.9374,87.94486 105.9374,159.78088 0,93.09829 -73.3976,168.95585 -165.4693,173.10751 -10.5217,38.10852 -45.72809,68.25232 -90.70231,77.89412 9.89995,2.1254 20.26876,3.2655 30.95774,3.2655 59.24057,0 108.81467,-34.6631 121.64967,-81.15755 92.0738,-4.15166 165.4693,-80.00923 165.4693,-173.10751 0,-71.83809 -43.6792,-133.46848 -105.9354,-159.78295 z"
   id="path1294" /><path
   id="path1298"
   d="m 666.74684,964.8719 c -13.94625,23.6542 -71.74514,50.1049 -93.17883,51.6086 2.3588,0.506 4.74859,0.9481 7.15696,1.3405 0.19416,0.031 0.38624,0.066 0.5804,0.097 2.44349,0.3883 4.9097,0.7208 7.40069,0.9873 0.0639,0.01 0.12806,0.01 0.19209,0.018 2.24107,0.2375 4.50692,0.4069 6.78517,0.5432 0.55561,0.033 1.10917,0.064 1.66685,0.091 2.37327,0.1137 4.75892,0.1901 7.16729,0.1901 v 0 c 30.6231,0 58.62922,-9.2968 80.35208,-24.6662 l 3.80878,-2.7698 -19.3971,-31.82524 z"
   style="fill:#009000;stroke-width:0.999999" /><path
   id="path1300"
   d="M 854.80236,1004.3601 921.0574,899.8128 c 5.24017,-8.27026 3.65594,-19.12653 -3.73236,-25.55231 v 0 c -7.88814,-6.86159 -19.75031,-6.41337 -27.09729,1.02449 l -48.79331,49.39852 c -6.47121,6.55177 -17.55881,1.10298 -16.32571,-8.02242 l 14.34903,-106.30716 c 1.5326,-11.35817 -6.86366,-21.64436 -18.29827,-22.41686 l -13.44227,-0.90882 c -10.10236,-0.68162 -19.09349,6.36174 -20.84709,16.3319 l -25.61014,145.51245 c -1.42519,8.09263 -11.70105,10.76327 -16.88546,4.38712 l -80.21162,-98.64625 c -5.55001,-6.82647 -14.9377,-9.17495 -23.04685,-5.76481 l -14.04334,5.9032 c -11.11858,4.67422 -15.5181,18.11444 -9.31334,28.45639 l 82.42791,137.39296 c 11.93653,19.8969 16.85861,43.2391 13.87397,66.2488 -10.68277,82.3887 -23.95154,160.0907 -78.25561,223.3859 h 283.35562 v 0 c -58.13143,-67.7587 -72.47013,-152.0228 -80.16412,-240.8744 -1.98081,-22.8156 3.54647,-45.658 15.80521,-65.0014 z"
   style="fill:#bf6101;stroke-width:0.999999" /><path
   id="path1302"
   d="m 921.05327,899.8128 c 5.24017,-8.27026 3.65594,-19.12653 -3.73236,-25.55231 v 0 c -7.88814,-6.86159 -19.75031,-6.41337 -27.09729,1.02449 l -21.79103,22.05954 v 0 l -27.00228,27.33898 c -6.47121,6.55177 -17.55675,1.10298 -16.32571,-8.02242 l 14.34903,-106.30716 c 1.49542,-11.07108 -6.45469,-21.09701 -17.44728,-22.31359 l -40.34541,250.76827 c -0.67748,3.2387 -1.20832,6.5083 -1.57598,9.8008 v 0 0 c -0.76837,6.8533 -0.87164,13.8037 -0.27058,20.7499 7.69399,88.8538 22.03269,173.1179 80.16412,240.8746 v 0 h 59.17451 v 0 c -58.13143,-67.7587 -72.47013,-152.0229 -80.16412,-240.8746 -1.97462,-22.8154 3.5506,-45.6578 15.80933,-65.0012 z"
   style="fill:#9a4d01;stroke-width:0.999999" /><path
   id="path1304"
   d="m 748.04699,404.20847 c -43.38583,0 -80.7342,25.75058 -97.6651,62.78913 -17.49065,-12.35995 -38.82314,-19.64497 -61.86793,-19.64497 -59.29224,0 -107.35848,48.06625 -107.35848,107.35849 0,19.56442 5.25876,37.88747 14.40066,53.68442 -51.48465,7.91499 -90.91092,52.40379 -90.91092,106.10473 0,59.29224 48.06625,107.35849 107.35849,107.35849 59.29225,0 343.40177,-250.99956 343.40177,-310.2918 0,-59.29225 -48.06831,-107.35849 -107.35849,-107.35849 z"
   style="fill:#00b400;fill-opacity:1;stroke-width:0.999999" /><path
   id="path1306"
   d="m 1151.5238,598.45635 c 8.229,-20.19646 12.3889,-41.55373 12.3889,-63.6897 0,-4.48832 -0.1776,-9.02416 -0.5287,-13.47532 -0.6527,-8.28679 -7.9047,-14.46882 -16.1853,-13.82233 -8.2847,0.6527 -14.475,7.89848 -13.8223,16.18526 0.287,3.6704 0.4357,7.40896 0.4357,11.11239 0,22.52221 -5.2339,44.06125 -15.5573,64.01811 -1.9291,3.7241 -2.2121,8.08437 -0.7869,12.02947 1.4252,3.94511 4.4326,7.11565 8.295,8.7474 58.7718,24.84176 96.748,82.11808 96.748,145.91724 0,84.81769 -66.3707,154.25154 -151.0995,158.07274 -6.5126,0.2933 -12.0956,4.74652 -13.8286,11.02977 -11.2157,40.62632 -56.2766,70.11342 -107.14157,70.11342 -24.2366,0 -47.35368,-6.4506 -66.39553,-18.3603 l 49.72485,-78.46832 c 3.4845,-5.49836 5.27323,-11.59365 5.45912,-17.66622 0.30776,-10.12095 -3.83977,-20.1758 -12.02328,-27.29558 -13.84504,-12.046 -34.78921,-11.25078 -47.68413,1.80318 l -37.31325,37.77593 12.16579,-90.11777 c 1.28474,-9.52815 -1.46444,-19.26285 -7.5432,-26.70897 -5.31867,-6.51666 -12.86394,-10.88313 -21.09289,-12.30832 -1.17527,-0.20242 -2.365,-0.34701 -3.56299,-0.42756 l -13.44228,-0.90882 c -6.68809,-0.45441 -13.08493,1.00177 -18.62874,3.92445 -9.24104,4.87045 -16.12123,13.82233 -18.0566,24.81492 l -11.76922,66.87056 -11.76922,66.86851 -72.66842,-89.368 c -2.41044,-2.964 -5.25257,-5.44879 -8.37766,-7.41721 -0.0186,-0.0123 -0.0372,-0.0269 -0.0557,-0.0393 -0.33668,-0.21069 -0.68987,-0.39245 -1.03275,-0.5928 -4.47181,-2.59634 -9.45793,-4.19709 -14.58656,-4.6515 -0.16318,-0.0145 -0.33048,-0.0124 -0.49366,-0.0248 -0.75597,-0.0557 -1.51194,-0.10328 -2.27205,-0.11154 -4.63085,-0.0454 -9.30714,0.82826 -13.73557,2.69134 l -14.04333,5.9032 c -9.32574,3.91826 -16.47856,11.68041 -19.62638,21.29325 -3.14782,9.6149 -1.96843,20.1035 3.23663,28.78067 l 59.48227,99.1441 c -17.74264,9.4765 -38.51537,14.5989 -59.81275,14.5989 -50.86706,0 -95.92595,-29.487 -107.14161,-70.11135 -1.73502,-6.28532 -7.31807,-10.73647 -13.82852,-11.02977 -84.72888,-3.8212 -151.09959,-73.25505 -151.09959,-158.07481 0,-63.80122 37.97628,-121.07754 96.74802,-145.91724 3.86249,-1.63175 6.86985,-4.80229 8.29505,-8.7474 1.42519,-3.9451 1.14015,-8.30537 -0.78696,-12.02947 -10.32337,-19.95686 -15.55735,-41.4959 -15.55735,-64.01811 0,-76.97085 62.62183,-139.59268 139.59269,-139.59268 21.45435,0 42.05151,4.75065 61.21522,14.11976 4.01327,1.96428 8.6937,2.04071 12.77305,0.21068 4.07524,-1.83003 7.13011,-5.3765 8.33223,-9.681 16.76773,-60.03789 72.04464,-101.96961 134.42068,-101.96961 62.37603,0 117.65294,41.93172 134.42067,101.96961 1.20419,4.3045 4.257,7.85303 8.33223,9.681 4.07729,1.83209 8.75979,1.75568 12.77305,-0.21068 19.16373,-9.36911 39.76089,-14.11976 61.21531,-14.11976 51.4536,0 98.5863,28.17135 123.0025,73.52354 3.9389,7.31806 13.0684,10.05691 20.3865,6.11594 7.3202,-3.9389 10.0569,-13.06841 6.116,-20.38649 -29.6751,-55.1158 -86.9617,-89.35353 -149.505,-89.35353 -20.32252,0 -40.015,3.50929 -58.75116,10.45351 -25.20531,-64.23086 -87.91595,-107.77779 -158.00043,-107.77779 -70.08448,0 -132.79513,43.54693 -157.9901,107.77571 -18.73614,-6.94421 -38.42862,-10.45349 -58.75108,-10.45349 -93.57128,0 -169.69528,76.124 -169.69528,169.69322 0,22.13596 4.15992,43.4953 12.38887,63.68969 -61.88651,32.33128 -101.08557,96.30807 -101.08557,167.02253 0,97.44822 73.59583,177.83337 169.41024,187.38843 18.83736,48.73546 71.77613,81.92806 132.76002,81.92806 26.73583,0 52.91811,-6.6386 75.30193,-18.8828 l 7.45852,12.4302 c 10.17466,16.9619 14.3862,37.0509 11.85597,56.5719 -2.18943,16.8773 -4.88491,36.7515 -8.30331,56.2044 -1.43759,8.1876 4.03392,15.989 12.2195,17.4266 8.19797,1.4396 15.98903,-4.0339 17.42662,-12.2195 3.52168,-20.0416 6.27706,-40.333 8.5078,-57.5448 3.39774,-26.2133 -2.24521,-53.1783 -15.89403,-75.9258 L 630.65843,875.46469 c -0.97492,-1.62349 -0.69607,-3.16022 -0.44202,-3.93272 0.25199,-0.77249 0.93774,-2.17497 2.68102,-2.90822 l 14.0454,-5.9032 c 1.93331,-0.81381 4.21362,-0.24373 5.53761,1.38595 l 80.21369,98.64827 c 0.21275,0.26025 0.43788,0.50398 0.6589,0.75395 2.98051,3.38738 6.68808,5.82258 10.76331,7.15898 4.32929,1.4211 9.05928,1.607 13.73765,0.4234 0.0516,-0.013 0.10327,-0.021 0.15697,-0.036 0,0 0,0 0.002,0 h 0.002 c 4.54617,-1.1815 8.49953,-3.5402 11.57507,-6.7314 0.1198,-0.126 0.24992,-0.2437 0.36766,-0.36976 0.1074,-0.11769 0.20655,-0.24373 0.31188,-0.36353 2.94954,-3.32748 4.99438,-7.46674 5.81026,-12.10796 l 25.60972,-145.5125 c 0.42343,-2.40424 2.63145,-4.0835 5.0109,-3.92652 l 13.44435,0.90882 c 1.79078,0.12187 2.8793,1.14223 3.36676,1.74122 0.48746,0.59693 1.27028,1.86514 1.02862,3.64767 l -14.34903,106.30922 c -0.17764,1.31573 -0.24786,2.62525 -0.21481,3.92032 0.22307,9.0655 5.43639,17.39566 13.77069,21.48948 0.59486,0.2933 1.19799,0.55976 1.80731,0.79935 3.04248,1.20626 6.23575,1.7722 9.39802,1.72882 6.32456,-0.0867 12.53139,-2.60872 17.19116,-7.32839 l 48.79124,-49.39852 c 0.84273,-0.85305 1.9395,-1.31366 3.059,-1.39008 0.0496,-0.004 0.0971,-0.0165 0.14666,-0.0186 0.0248,0 0.0496,0.005 0.0744,0.005 0.85511,-0.0187 1.71436,0.18382 2.48066,0.62378 0.26232,0.15078 0.51431,0.32841 0.75184,0.53496 1.78666,1.55533 2.16258,4.13926 0.89643,6.14074 L 842.08871,996.3047 c -13.91528,21.9604 -20.34105,48.3678 -18.08965,74.356 6.30391,72.8067 17.22833,154.9 64.69972,224.5259 H 666.15359 c 16.98667,-25.1908 30.18522,-53.8495 40.05418,-86.8397 2.38151,-7.9625 -2.14193,-16.3505 -10.1065,-18.7321 -7.96663,-2.3815 -16.35256,2.142 -18.73202,10.1066 -12.03773,40.24 -29.37141,73.1868 -52.99453,100.7158 -3.82737,4.4615 -4.70727,10.7447 -2.2514,16.0861 2.45589,5.3413 7.7952,8.7639 13.67361,8.7639 h 283.35562 c 5.87842,0 11.2198,-3.4226 13.67361,-8.7639 2.45588,-5.3414 1.57597,-11.6246 -2.25139,-16.0841 -57.95587,-67.5543 -69.92338,-155.3689 -76.59287,-232.375 -1.68339,-19.4591 3.1189,-39.2238 13.52695,-55.6466 l 0.42136,-0.6671 c 23.84208,14.9418 52.56079,23.0469 82.50436,23.0469 60.98383,0 113.92263,-33.1928 132.75993,-81.93036 95.8144,-9.55492 169.4103,-89.94007 169.4103,-187.38623 0,-70.71653 -39.197,-134.69333 -101.0814,-167.02459 z"
   style="fill:#121419;stroke-width:0.999999" /><g
   transform="matrix(1.3986438,0,0,1.3986438,-29.733808,-13.361981)"
   id="g2023"
   style="fill:none;fill-opacity:1;stroke:#060906;stroke-width:10.0097;stroke-miterlimit:4;stroke-dasharray:none;stroke-opacity:1;paint-order:stroke fill markers"><path
     transform="rotate(13)"
     style="color:#000000;font-style:normal;font-variant:normal;font-weight:normal;font-stretch:normal;font-size:medium;line-height:normal;font-family:sans-serif;font-variant-ligatures:normal;font-variant-position:normal;font-variant-caps:normal;font-variant-numeric:normal;font-variant-alternates:normal;font-variant-east-asian:normal;font-feature-settings:normal;font-variation-settings:normal;text-indent:0;text-align:start;text-decoration:none;text-decoration-line:none;text-decoration-style:solid;text-decoration-color:#000000;letter-spacing:normal;word-spacing:normal;text-transform:none;writing-mode:lr-tb;direction:ltr;text-orientation:mixed;dominant-baseline:auto;baseline-shift:baseline;text-anchor:start;white-space:normal;shape-padding:0;shape-margin:0;inline-size:0;clip-rule:nonzero;display:inline;overflow:visible;visibility:visible;opacity:1;isolation:auto;mix-blend-mode:normal;color-interpolation:sRGB;color-interpolation-filters:linearRGB;solid-color:#000000;solid-opacity:1;vector-effect:none;fill:#060906;fill-opacity:1;fill-rule:nonzero;stroke:none;stroke-width:10.0097;stroke-linecap:butt;stroke-linejoin:miter;stroke-miterlimit:4;stroke-dasharray:none;stroke-dashoffset:0;stroke-opacity:1;paint-order:stroke fill markers;color-rendering:auto;image-rendering:auto;shape-rendering:auto;text-rendering:auto;enable-background:accumulate;stop-color:#000000;stop-opacity:1"
     d="M 422.08398,23.251953 C 343.30345,22.572649 268.28584,64.635355 228.70117,136.00391 c -48.71958,87.83821 -31.36227,197.70643 42.0625,266.24804 l 14.10742,-15.11328 C 218.30556,325.00012 202.61298,225.6657 246.78125,146.0332 290.94952,66.40071 383.52782,27.117128 471.48633,50.685547 l 5.34961,-19.970703 c -18.19166,-4.874442 -36.57183,-7.306128 -54.75196,-7.462891 z"
     id="path5311" /></g><path
   id="path979"
   d="m 522.2874,226.08261 c -80.82127,-19.38958 -167.93401,6.04796 -225.5538,70.00755 -70.91668,78.71949 -79.15109,195.80936 -19.94921,283.67897 l 23.98074,-16.15873 c -51.8687,-76.98544 -44.68114,-179.19602 17.45126,-248.16473 62.13241,-68.96872 163.0398,-86.7485 245.00243,-43.16817 l 13.57903,-25.53245 C 559.25714,237.4185 540.93848,230.55713 522.2874,226.08261 Z"
   style="color:#000000;font-style:normal;font-variant:normal;font-weight:normal;font-stretch:normal;font-size:medium;line-height:normal;font-family:sans-serif;font-variant-ligatures:normal;font-variant-position:normal;font-variant-caps:normal;font-variant-numeric:normal;font-variant-alternates:normal;font-variant-east-asian:normal;font-feature-settings:normal;font-variation-settings:normal;text-indent:0;text-align:start;text-decoration:none;text-decoration-line:none;text-decoration-style:solid;text-decoration-color:#000000;letter-spacing:normal;word-spacing:normal;text-transform:none;writing-mode:lr-tb;direction:ltr;text-orientation:mixed;dominant-baseline:auto;baseline-shift:baseline;text-anchor:start;white-space:normal;shape-padding:0;shape-margin:0;inline-size:0;clip-rule:nonzero;display:inline;overflow:visible;visibility:visible;opacity:1;isolation:auto;mix-blend-mode:normal;color-interpolation:sRGB;color-interpolation-filters:linearRGB;solid-color:#000000;solid-opacity:1;vector-effect:none;fill:#060906;fill-opacity:1;fill-rule:nonzero;stroke:none;stroke-width:14;stroke-linecap:butt;stroke-linejoin:miter;stroke-miterlimit:4;stroke-dasharray:none;stroke-dashoffset:0;stroke-opacity:1;paint-order:stroke fill markers;color-rendering:auto;image-rendering:auto;shape-rendering:auto;text-rendering:auto;enable-background:accumulate;stop-color:#000000;stop-opacity:1" /><path
   id="path964"
   d="m 510.60108,298.473 c -55.28827,-13.25762 -114.90454,4.14726 -154.31016,47.88861 -48.49922,53.83546 -54.13596,133.97466 -13.64837,194.06783 l 23.98073,-16.15875 c -33.1544,-49.20898 -28.56359,-114.47282 11.15136,-158.55752 39.71495,-44.0847 104.14543,-55.43647 156.53584,-27.58 l 13.57418,-25.52942 C 535.88873,306.2254 523.35991,301.53247 510.60108,298.473 Z"
   style="color:#000000;font-style:normal;font-variant:normal;font-weight:normal;font-stretch:normal;font-size:medium;line-height:normal;font-family:sans-serif;font-variant-ligatures:normal;font-variant-position:normal;font-variant-caps:normal;font-variant-numeric:normal;font-variant-alternates:normal;font-variant-east-asian:normal;font-feature-settings:normal;font-variation-settings:normal;text-indent:0;text-align:start;text-decoration:none;text-decoration-line:none;text-decoration-style:solid;text-decoration-color:#000000;letter-spacing:normal;word-spacing:normal;text-transform:none;writing-mode:lr-tb;direction:ltr;text-orientation:mixed;dominant-baseline:auto;baseline-shift:baseline;text-anchor:start;white-space:normal;shape-padding:0;shape-margin:0;inline-size:0;clip-rule:nonzero;display:inline;overflow:visible;visibility:visible;opacity:1;isolation:auto;mix-blend-mode:normal;color-interpolation:sRGB;color-interpolation-filters:linearRGB;solid-color:#000000;solid-opacity:1;vector-effect:none;fill:#060906;fill-opacity:1;fill-rule:nonzero;stroke:none;stroke-width:14;stroke-linecap:butt;stroke-linejoin:miter;stroke-miterlimit:4;stroke-dasharray:none;stroke-dashoffset:0;stroke-opacity:1;paint-order:stroke fill markers;color-rendering:auto;image-rendering:auto;shape-rendering:auto;text-rendering:auto;enable-background:accumulate;stop-color:#000000;stop-opacity:1" /></svg>
